<svg width="88" height="96" viewBox="0 0 88 96" fill="none" xmlns="http://www.w3.org/2000/svg">
<path d="M59.3003 36.1369C58.6223 36.2929 57.9347 35.8626 57.7787 35.1845L56.3554 28.9995C54.3143 20.1297 45.4436 14.5778 36.5738 16.6188C27.704 18.6599 22.1521 27.5306 24.1932 36.4004L25.6164 42.5855C25.7725 43.2636 25.3513 43.949 24.6641 44.1071C22.5932 44.5837 20.5591 45.0518 18.479 45.5304C17.801 45.6864 17.1134 45.2561 16.9574 44.5781L15.5341 38.393C12.3945 24.7493 20.9375 11.0994 34.5812 7.95978C48.225 4.82017 61.8749 13.3632 65.0145 27.0069L66.4377 33.1919C66.5938 33.87 66.1726 34.5555 65.4854 34.7136C63.3229 35.2112 61.4078 35.6519 59.3003 36.1369Z" fill="#ECE9FC"/>
<path d="M77.3743 81.4732L28.233 92.7813C25.0626 93.5108 21.9044 91.5264 21.177 88.3651L12.4308 50.3569C11.7033 47.1957 13.6765 44.0305 16.8469 43.3009L65.9882 31.9928C69.1495 31.2654 72.3168 33.2477 73.0442 36.4089L81.7904 74.4172C82.5179 77.5784 80.5356 80.7457 77.3743 81.4732Z" fill="#DCD6FB"/>
<path d="M13.3879 54.517L12.8186 52.043L73.432 38.095L74.0013 40.569L13.3879 54.517Z" fill="#E3E8EF"/>
<path d="M80.8778 67.6419L19.0274 81.8745C17.0115 82.3384 14.9939 81.0756 14.5279 79.0506L11.3735 65.3427C10.9097 63.3268 12.1724 61.3092 14.1883 60.8453L76.0387 46.6127C78.0546 46.1488 80.0814 47.4095 80.5452 49.4253L83.6996 63.1332C84.1656 65.1583 82.8937 67.178 80.8778 67.6419Z" fill="#A38CF3"/>
<path d="M27.1707 74.7906C26.4835 74.9487 25.8051 74.5163 25.649 73.8382L23.6565 65.1791C23.4983 64.4919 23.9216 63.8156 24.6088 63.6575C25.2869 63.5015 25.9724 63.9226 26.1305 64.6098L28.1231 73.2689C28.2791 73.947 27.8488 74.6345 27.1707 74.7906Z" fill="white"/>
<path d="M23.8589 74.1922C23.5381 74.266 23.1971 74.2094 22.8928 74.019C22.3045 73.643 22.1345 72.862 22.5083 72.2646L27.2771 64.7705C27.6623 64.1801 28.4432 64.0101 29.0315 64.3861C29.6289 64.76 29.801 65.5501 29.425 66.1383L24.6471 73.6346C24.4637 73.9276 24.1704 74.1205 23.8589 74.1922Z" fill="white"/>
<path d="M30.0347 72.7711C29.7232 72.8428 29.3842 72.7953 29.082 72.614L21.5173 67.958C20.9221 67.5933 20.7316 66.8074 21.0963 66.2121C21.461 65.6168 22.2469 65.4263 22.8422 65.791L30.416 70.4449C31.0134 70.8188 31.2018 71.5956 30.8279 72.193C30.6466 72.4952 30.3554 72.6973 30.0347 72.7711Z" fill="white"/>
<path d="M40.6221 71.6952C39.9349 71.8534 39.2565 71.4209 39.1005 70.7429L37.1079 62.0838C36.9498 61.3966 37.373 60.7203 38.0603 60.5621C38.7383 60.4061 39.4238 60.8273 39.5819 61.5145L41.5745 70.1736C41.7305 70.8516 41.3002 71.5392 40.6221 71.6952Z" fill="white"/>
<path d="M37.3103 71.0969C36.9896 71.1707 36.6485 71.1141 36.3442 70.9236C35.7559 70.5476 35.5859 69.7667 35.9598 69.1693L40.7285 61.6751C41.1137 61.0848 41.8946 60.9147 42.4829 61.2907C43.0803 61.6646 43.2524 62.4548 42.8764 63.043L38.0985 70.5392C37.9151 70.8323 37.631 71.0231 37.3103 71.0969Z" fill="white"/>
<path d="M43.4862 69.6757C43.1746 69.7474 42.8357 69.7 42.5334 69.5187L34.9688 64.8627C34.3735 64.4979 34.183 63.712 34.5477 63.1167C34.9216 62.5193 35.6983 62.331 36.2936 62.6957L43.8675 67.3496C44.4649 67.7235 44.6532 68.5002 44.2794 69.0976C44.098 69.3999 43.8069 69.6019 43.4862 69.6757Z" fill="white"/>
<path d="M40.6221 71.6952C39.9349 71.8534 39.2565 71.4209 39.1005 70.7429L37.1079 62.0838C36.9498 61.3966 37.373 60.7203 38.0603 60.5621C38.7383 60.4061 39.4238 60.8273 39.5819 61.5145L41.5745 70.1736C41.7305 70.8516 41.3002 71.5392 40.6221 71.6952Z" fill="white"/>
<path d="M37.3103 71.0969C36.9896 71.1707 36.6485 71.1141 36.3442 70.9236C35.7559 70.5476 35.5859 69.7667 35.9598 69.1693L40.7285 61.6751C41.1137 61.0848 41.8946 60.9147 42.4829 61.2907C43.0803 61.6646 43.2524 62.4548 42.8764 63.043L38.0985 70.5392C37.9151 70.8323 37.631 71.0231 37.3103 71.0969Z" fill="white"/>
<path d="M43.4862 69.6757C43.1746 69.7474 42.8357 69.7 42.5334 69.5187L34.9688 64.8627C34.3735 64.4979 34.183 63.712 34.5477 63.1167C34.9216 62.5193 35.6983 62.331 36.2936 62.6957L43.8675 67.3496C44.4649 67.7235 44.6532 68.5002 44.2794 69.0976C44.098 69.3999 43.8069 69.6019 43.4862 69.6757Z" fill="white"/>
<path d="M55.6221 68.2436C54.9349 68.4017 54.2565 67.9693 54.1005 67.2912L52.1079 58.6321C51.9498 57.9449 52.373 57.2686 53.0603 57.1105C53.7383 56.9545 54.4238 57.3756 54.5819 58.0628L56.5745 66.7219C56.7305 67.4 56.3002 68.0875 55.6221 68.2436Z" fill="white"/>
<path d="M52.31 67.6452C51.9893 67.719 51.6483 67.6624 51.3439 67.472C50.7557 67.096 50.5856 66.315 50.9595 65.7176L55.7283 58.2235C56.1134 57.6331 56.8944 57.4631 57.4826 57.8391C58.08 58.213 58.2522 59.0031 57.8762 59.5913L53.0983 67.0876C52.9149 67.3806 52.6216 67.5735 52.31 67.6452Z" fill="white"/>
<path d="M58.4859 66.2241C58.1744 66.2958 57.8354 66.2483 57.5332 66.067L49.9685 61.411C49.3732 61.0463 49.1827 60.2604 49.5474 59.6651C49.9213 59.0677 50.6981 58.8793 51.2934 59.244L58.8672 63.898C59.4625 64.2627 59.653 65.0486 59.2791 65.646C59.0978 65.9482 58.8066 66.1503 58.4859 66.2241Z" fill="white"/>
<path d="M55.6221 68.2436C54.9349 68.4017 54.2565 67.9693 54.1005 67.2912L52.1079 58.6321C51.9498 57.9449 52.373 57.2686 53.0603 57.1105C53.7383 56.9545 54.4238 57.3756 54.5819 58.0628L56.5745 66.7219C56.7305 67.4 56.3002 68.0875 55.6221 68.2436Z" fill="white"/>
<path d="M52.31 67.6452C51.9893 67.719 51.6483 67.6624 51.3439 67.472C50.7557 67.096 50.5856 66.315 50.9595 65.7176L55.7283 58.2235C56.1134 57.6331 56.8944 57.4631 57.4826 57.8391C58.08 58.213 58.2522 59.0031 57.8762 59.5913L53.0983 67.0876C52.9149 67.3806 52.6216 67.5735 52.31 67.6452Z" fill="white"/>
<path d="M58.4859 66.2241C58.1744 66.2958 57.8354 66.2483 57.5332 66.067L49.9685 61.411C49.3732 61.0463 49.1827 60.2604 49.5474 59.6651C49.9213 59.0677 50.6981 58.8793 51.2934 59.244L58.8672 63.898C59.4625 64.2627 59.653 65.0486 59.2791 65.646C59.0978 65.9482 58.8066 66.1503 58.4859 66.2241Z" fill="white"/>
<path d="M69.2291 65.1123C68.5418 65.2705 67.8634 64.838 67.7074 64.16L65.7148 55.5009C65.5567 54.8137 65.98 54.1374 66.6672 53.9793C67.3452 53.8232 68.0307 54.2444 68.1888 54.9316L70.1814 63.5907C70.3374 64.2687 69.9071 64.9563 69.2291 65.1123Z" fill="white"/>
<path d="M65.9172 64.5141C65.5965 64.5879 65.2554 64.5313 64.9511 64.3409C64.3629 63.9649 64.1928 63.1839 64.5667 62.5865L69.3355 55.0924C69.7206 54.502 70.5016 54.332 71.0898 54.708C71.6872 55.0819 71.8594 55.872 71.4834 56.4602L66.7055 63.9565C66.522 64.2495 66.2287 64.4424 65.9172 64.5141Z" fill="white"/>
<path d="M72.0931 63.093C71.7815 63.1647 71.4426 63.1172 71.1404 62.9359L63.5757 58.2799C62.9804 57.9152 62.7899 57.1293 63.1546 56.534C63.5194 55.9387 64.3053 55.7482 64.9006 56.1129L72.4744 60.7668C73.0697 61.1316 73.2602 61.9175 72.8863 62.5149C72.705 62.8171 72.4138 63.0192 72.0931 63.093Z" fill="white"/>
</svg>
