<svg width="218" height="39" viewBox="0 0 218 39" fill="none" xmlns="http://www.w3.org/2000/svg">
<g clip-path="url(#clip0_204_15725)">
<path d="M19.8183 39C30.7639 39 39.6365 30.2698 39.6365 19.5V5.85C39.6365 4.29848 39.0101 2.81051 37.8951 1.71343C36.7801 0.616337 35.2679 0 33.6911 0L20.8092 0V8.55465C20.8092 10.5066 20.9301 12.5288 21.9706 14.1902C22.7154 15.3808 23.7119 16.3999 24.8923 17.1783C26.0727 17.9567 27.4094 18.4762 28.8118 18.7015L29.1913 18.7619C29.3478 18.8145 29.4836 18.914 29.5798 19.0463C29.676 19.1787 29.7277 19.3373 29.7277 19.5C29.7277 19.6627 29.676 19.8213 29.5798 19.9537C29.4836 20.086 29.3478 20.1855 29.1913 20.2381L28.8118 20.2985C26.7628 20.6279 24.8706 21.5822 23.4026 23.0267C21.9345 24.4712 20.9646 26.333 20.6299 28.3491L20.5684 28.7225C20.515 28.8765 20.4139 29.0101 20.2794 29.1047C20.1449 29.1994 19.9837 29.2502 19.8183 29.2502C19.653 29.2502 19.4918 29.1994 19.3573 29.1047C19.2228 29.0101 19.1217 28.8765 19.0682 28.7225L19.0068 28.3491C18.7777 26.9692 18.2498 25.654 17.4587 24.4925C16.6676 23.3311 15.6319 22.3506 14.4218 21.6177C12.7333 20.594 10.6782 20.475 8.69438 20.475H0.0239258C0.542171 30.7915 9.20569 39 19.8183 39Z" fill="#97A3B6"/>
<path d="M0 18.525H8.69424C10.678 18.525 12.7332 18.406 14.4217 17.3823C15.7416 16.5821 16.8527 15.4889 17.6659 14.1901C18.7064 12.5287 18.8273 10.5066 18.8273 8.55465V0H5.94545C4.36862 0 2.85637 0.616337 1.74138 1.71343C0.626394 2.81051 0 4.29848 0 5.85L0 18.525ZM46.0327 1.95C46.0327 2.46717 45.8239 2.96316 45.4522 3.32886C45.0806 3.69455 44.5765 3.9 44.0509 3.9C43.5253 3.9 43.0212 3.69455 42.6495 3.32886C42.2778 2.96316 42.069 2.46717 42.069 1.95C42.069 1.43283 42.2778 0.936838 42.6495 0.571142C43.0212 0.205446 43.5253 0 44.0509 0C44.5765 0 45.0806 0.205446 45.4522 0.571142C45.8239 0.936838 46.0327 1.43283 46.0327 1.95ZM209.786 11.8014C215.327 11.8014 218 15.6088 218 20.0187V28.3013H212.202V21.0015C212.202 19.0027 211.461 17.353 209.335 17.353C207.21 17.353 206.501 19.0027 206.501 21.0015V28.3003H200.704V21.0015C200.704 19.0027 199.995 17.353 197.869 17.353C195.743 17.353 195.002 19.0027 195.002 21.0015V28.3003H189.205V20.0177C189.205 15.6078 191.878 11.8004 197.418 11.8004C200.446 11.8004 202.636 12.9743 203.635 14.9097C204.697 12.9743 207.017 11.7994 209.786 11.7994V11.8014ZM178.787 23.2245C180.655 23.2245 181.46 21.5426 181.46 19.5429V12.4351H187.257V20.241C187.257 24.9054 184.487 28.7771 178.787 28.7771C173.085 28.7771 170.315 24.9064 170.315 20.241V12.4351H176.113V19.5429C176.113 21.5416 176.918 23.2245 178.787 23.2245ZM161.791 28.8083C158.151 28.8083 155.8 27.571 154.414 25.1599L158.602 22.8433C159.182 23.8582 160.051 24.3662 161.5 24.3662C162.692 24.3662 163.239 23.9538 163.239 23.4458C163.239 21.5104 154.736 23.478 154.736 17.3228C154.736 14.3393 157.313 11.9281 161.694 11.9281C165.526 11.9281 167.62 13.768 168.555 15.5454L164.367 17.8932C164.013 16.9416 162.917 16.3702 161.822 16.3702C160.985 16.3702 160.534 16.7193 160.534 17.1951C160.534 19.1626 169.037 17.354 169.037 23.3191C169.037 26.6506 165.72 28.8083 161.791 28.8083ZM141.535 35.5992H135.737V20.3365C135.737 15.481 139.441 11.9593 144.594 11.9593C149.619 11.9593 153.452 15.7355 153.452 20.3365C153.452 25.4134 150.038 28.7771 144.916 28.7771C143.724 28.7771 142.533 28.4281 141.535 27.8879V35.5992ZM144.594 23.4146C146.431 23.4146 147.654 22.0184 147.654 20.3677C147.654 18.6868 146.431 17.3218 144.594 17.3218C142.758 17.3218 141.535 18.6868 141.535 20.3687C141.535 22.0184 142.758 23.4146 144.594 23.4146ZM129.929 10.7542C128.028 10.7542 126.451 9.19912 126.451 7.32712C126.451 5.45512 128.028 3.9 129.929 3.9C131.83 3.9 133.408 5.45512 133.408 7.32712C133.408 9.19912 131.83 10.7542 129.929 10.7542ZM127.031 12.4351H132.828V28.3013H127.031V12.4351ZM115.907 28.7771C110.882 28.7771 107.049 24.9697 107.049 20.3365C107.049 15.7355 110.882 11.9281 115.907 11.9281C120.932 11.9281 124.764 15.7355 124.764 20.3365C124.764 24.9697 120.932 28.7771 115.907 28.7771ZM115.907 23.4146C117.743 23.4146 118.967 22.0184 118.967 20.3677C118.967 18.6868 117.743 17.2906 115.907 17.2906C114.07 17.2906 112.847 18.6868 112.847 20.3677C112.847 22.0184 114.07 23.4146 115.907 23.4146ZM96.1013 36.075C92.108 36.075 89.2086 34.3297 87.7272 31.2195L92.5261 28.6816C93.0414 29.7609 94.0075 30.8714 96.0042 30.8714C98.099 30.8714 99.4833 29.5698 99.6448 27.2854C98.8719 27.9523 97.6472 28.4593 95.812 28.4593C91.3341 28.4593 87.7262 25.0643 87.7262 20.3044C87.7262 15.7043 91.56 11.9593 96.5849 11.9593C101.739 11.9593 105.443 15.482 105.443 20.3365V26.6194C105.443 32.331 101.416 36.075 96.1013 36.075ZM96.4878 23.0977C98.2268 23.0977 99.5477 21.9229 99.5477 20.1776C99.5477 18.4645 98.2278 17.3218 96.4878 17.3218C94.7805 17.3218 93.4279 18.4645 93.4279 20.1786C93.4279 21.9238 94.7805 23.0968 96.4878 23.0968V23.0977ZM77.8924 28.7771C72.8675 28.7771 69.0337 24.9697 69.0337 20.3365C69.0337 15.7355 72.8675 11.9281 77.8924 11.9281C82.9163 11.9281 86.7501 15.7355 86.7501 20.3365C86.7501 24.9697 82.9173 28.7771 77.8924 28.7771ZM77.8924 23.4146C79.7285 23.4146 80.9523 22.0184 80.9523 20.3677C80.9523 18.6868 79.7285 17.2906 77.8924 17.2906C76.0562 17.2906 74.8325 18.6868 74.8325 20.3677C74.8325 22.0184 76.0562 23.4146 77.8924 23.4146ZM58.4765 6.8835V22.9066H68.0755V28.3013H57.6709C53.9996 28.3013 52.5182 26.3971 52.5182 23.3824V6.8835H58.4765Z" fill="#97A3B6"/>
</g>
<defs>
<clipPath id="clip0_204_15725">
<rect width="218" height="39" fill="white"/>
</clipPath>
</defs>
</svg>
