<svg width="218" height="39" viewBox="0 0 218 39" fill="none" xmlns="http://www.w3.org/2000/svg">
<g clip-path="url(#clip0_204_15699)">
<path d="M122.355 28.7857H127.018V11.6368H122.355V28.7857ZM122.355 8.96257H127.018V4.88428H122.355V8.96257Z" fill="#97A3B6"/>
<path d="M130.023 34.4016H134.686V26.8467H134.754C135.748 28.3176 137.36 29.287 139.828 29.287C144.354 29.287 147.44 25.777 147.44 20.2279C147.44 14.8793 144.457 11.1687 139.794 11.1687C137.394 11.1687 135.748 12.2719 134.617 13.7761H134.514V11.6367H130.023V34.4016ZM138.834 25.5096C136.057 25.5096 134.583 23.4705 134.583 20.3616C134.583 17.2861 135.748 14.8459 138.663 14.8459C141.543 14.8459 142.708 17.119 142.708 20.3616C142.708 23.6041 141.2 25.5096 138.834 25.5096Z" fill="#97A3B6"/>
<path d="M156.741 29.287C161.13 29.287 164.147 27.2145 164.147 23.7713C164.147 19.7599 160.89 18.9576 157.941 18.3559C155.438 17.8545 153.107 17.7207 153.107 16.2499C153.107 15.013 154.307 14.3445 156.124 14.3445C158.113 14.3445 159.313 15.013 159.518 16.8516H163.735C163.393 13.4085 160.821 11.1687 156.193 11.1687C152.181 11.1687 149.027 12.9405 149.027 16.651C149.027 20.395 152.113 21.2307 155.267 21.8325C157.667 22.3005 159.895 22.4676 159.895 24.1056C159.895 25.309 158.73 26.0779 156.673 26.0779C154.581 26.0779 153.141 25.2087 152.833 23.2365H148.513C148.787 26.8801 151.633 29.287 156.741 29.287Z" fill="#97A3B6"/>
<path d="M181.85 28.7856V11.6367H177.187V21.5316C177.187 23.8047 175.85 25.4093 173.656 25.4093C171.667 25.4093 170.742 24.3062 170.742 22.3005V11.6367H166.113V23.0693C166.113 26.8133 168.307 29.2536 172.216 29.2536C174.685 29.2536 176.056 28.351 177.256 26.7799H177.359V28.7856H181.85Z" fill="#97A3B6"/>
<path d="M184.866 28.7856H189.529V18.8239C189.529 16.5507 190.798 15.0799 192.684 15.0799C194.398 15.0799 195.392 16.0827 195.392 18.0216V28.7856H200.055V18.8239C200.055 16.5507 201.255 15.0799 203.209 15.0799C204.924 15.0799 205.918 16.0827 205.918 18.0216V28.7856H210.581V17.2527C210.581 13.5087 208.489 11.1687 204.786 11.1687C202.558 11.1687 200.706 12.3053 199.506 14.1773H199.438C198.581 12.3721 196.798 11.1687 194.569 11.1687C192.135 11.1687 190.421 12.3721 189.461 13.9433H189.358V11.6367H184.866V28.7856Z" fill="#97A3B6"/>
<path d="M0.824219 28.7857H5.48707V4.88428H0.824219V28.7857Z" fill="#97A3B6"/>
<path d="M16.8883 29.287C22.3397 29.287 26.0768 25.3425 26.0768 20.2279C26.0768 15.1133 22.3397 11.1687 16.8883 11.1687C11.4368 11.1687 7.69971 15.1133 7.69971 20.2279C7.69971 25.3425 11.4368 29.287 16.8883 29.287ZM16.8883 25.8105C14.0083 25.8105 12.4311 23.5707 12.4311 20.2279C12.4311 16.885 14.0083 14.6119 16.8883 14.6119C19.734 14.6119 21.3454 16.885 21.3454 20.2279C21.3454 23.5707 19.734 25.8105 16.8883 25.8105Z" fill="#97A3B6"/>
<path d="M35.9929 34.6356C38.5986 34.6356 40.8615 34.0339 42.3357 32.6967C43.6386 31.5267 44.4272 29.8887 44.4272 27.4819V11.6367H39.9358V13.4419H39.8672C38.8043 12.0045 37.1929 11.1687 34.9986 11.1687C30.5415 11.1687 27.3872 14.4447 27.3872 19.5593C27.3872 24.7407 31.2272 27.7493 35.1358 27.7493C37.3643 27.7493 38.7015 26.8801 39.73 25.7436H39.8329V27.6156C39.8329 29.9556 38.5643 31.1925 35.9243 31.1925C33.7643 31.1925 32.77 30.3567 32.3929 29.287H27.7643C28.2443 32.6299 31.1929 34.6356 35.9929 34.6356ZM35.9243 24.1056C33.5243 24.1056 31.9472 22.4007 31.9472 19.4925C31.9472 16.6176 33.5243 14.8125 35.89 14.8125C38.7015 14.8125 40.0729 16.9519 40.0729 19.459C40.0729 21.9996 38.8729 24.1056 35.9243 24.1056Z" fill="#97A3B6"/>
<path d="M55.7609 29.287C61.2123 29.287 64.9495 25.3425 64.9495 20.2279C64.9495 15.1133 61.2123 11.1687 55.7609 11.1687C50.3095 11.1687 46.5723 15.1133 46.5723 20.2279C46.5723 25.3425 50.3095 29.287 55.7609 29.287ZM55.7609 25.8105C52.8809 25.8105 51.3038 23.5707 51.3038 20.2279C51.3038 16.885 52.8809 14.6119 55.7609 14.6119C58.6066 14.6119 60.2181 16.885 60.2181 20.2279C60.2181 23.5707 58.6066 25.8105 55.7609 25.8105Z" fill="#97A3B6"/>
<path d="M212.275 8.82132C212.275 8.05207 212.915 7.42847 213.704 7.42847H216.561C217.35 7.42847 217.99 8.05207 217.99 8.82132C217.99 9.59058 217.35 10.2142 216.561 10.2142H213.704C212.915 10.2142 212.275 9.59058 212.275 8.82132Z" fill="#97A3B6"/>
<path fill-rule="evenodd" clip-rule="evenodd" d="M93.2275 0C104.273 0 113.228 8.73045 113.228 19.5C113.228 30.2696 104.273 39 93.2275 39C82.1818 39 73.2275 30.2696 73.2275 19.5C73.2275 8.73045 82.1818 0 93.2275 0ZM92.5046 1.45918C90.2229 1.77225 88.0503 3.5598 86.3638 6.54947C85.8746 7.41666 85.4332 8.37472 85.0486 9.40918C87.3418 8.84732 89.8609 8.51606 92.5046 8.46482V1.45918ZM83.3582 9.87753C83.8366 8.41384 84.4217 7.06719 85.097 5.87013C85.933 4.38808 86.9252 3.10825 88.0431 2.12528C81.9642 3.8466 77.1727 8.51837 75.4072 14.4453C76.4154 13.3554 77.728 12.388 79.2481 11.5729C80.4759 10.9144 81.857 10.3439 83.3582 9.87753ZM82.8779 11.5256C82.3016 13.7614 81.9619 16.2176 81.9093 18.7952H74.724C75.0451 16.5705 76.8785 14.4522 79.9449 12.808C80.8343 12.331 81.8169 11.9007 82.8779 11.5256ZM83.3554 18.7952C83.4151 15.9822 83.8305 13.3413 84.5177 11.0079C86.9109 10.3379 89.6195 9.93291 92.5046 9.8747V12.9195C91.4283 15.606 89.2331 17.7462 86.4776 18.7952H83.3554ZM81.9093 20.2048H74.724C75.0451 22.4295 76.8785 24.5477 79.9449 26.192C80.8343 26.669 81.8169 27.0993 82.8779 27.4744C82.3016 25.2386 81.9619 22.7824 81.9093 20.2048ZM84.5177 27.9921C83.8305 25.6587 83.4151 23.0178 83.3554 20.2048H86.4776C89.2331 21.2538 91.4283 23.394 92.5046 26.0805V29.1253C89.6195 29.0671 86.9109 28.6621 84.5177 27.9921ZM83.3582 29.1225C81.857 28.6561 80.4759 28.0856 79.2481 27.4271C77.728 26.612 76.4154 25.6446 75.4072 24.5547C77.1727 30.4816 81.9642 35.1534 88.0431 36.8747C86.9252 35.8917 85.933 34.6119 85.097 33.1298C84.4217 31.9328 83.8366 30.5861 83.3582 29.1225ZM92.5046 37.5408C90.2229 37.2277 88.0503 35.4402 86.3638 32.4505C85.8746 31.5834 85.4332 30.6252 85.0486 29.5909C87.3418 30.1527 89.8609 30.484 92.5046 30.5351V37.5408ZM98.4118 36.8747C99.5297 35.8917 100.522 34.6119 101.358 33.1298C102.033 31.9328 102.619 30.5861 103.097 29.1225C104.598 28.6561 105.979 28.0856 107.207 27.4271C108.727 26.612 110.04 25.6446 111.048 24.5547C109.282 30.4816 104.491 35.1534 98.4118 36.8747ZM101.407 29.5909C101.022 30.6252 100.58 31.5834 100.091 32.4505C98.4046 35.4402 96.232 37.2277 93.9503 37.5408V30.5351C96.594 30.484 99.1131 30.1527 101.407 29.5909ZM103.577 27.4744C104.638 27.0993 105.621 26.669 106.51 26.192C109.577 24.5478 111.41 22.4295 111.731 20.2048H104.546C104.493 22.7824 104.153 25.2386 103.577 27.4744ZM103.1 20.2048C103.04 23.0178 102.625 25.6587 101.937 27.9921C99.544 28.6621 96.8354 29.0671 93.9503 29.1253V26.0827C95.0263 23.3952 97.222 21.2541 99.9782 20.2048H103.1ZM104.546 18.7952H111.731C111.41 16.5705 109.577 14.4522 106.51 12.808C105.621 12.331 104.638 11.9007 103.577 11.5256C104.153 13.7614 104.493 16.2176 104.546 18.7952ZM101.937 11.0079C102.625 13.3413 103.04 15.9822 103.1 18.7952H99.9783C97.222 17.7459 95.0263 15.6048 93.9503 12.9173V9.8747C96.8354 9.93291 99.544 10.3379 101.937 11.0079ZM103.097 9.87753C104.598 10.3439 105.979 10.9144 107.207 11.5729C108.727 12.388 110.04 13.3554 111.048 14.4453C109.282 8.51837 104.491 3.8466 98.4118 2.12528C99.5297 3.10825 100.522 4.38808 101.358 5.87013C102.033 7.06719 102.619 8.41384 103.097 9.87753ZM93.9503 1.45918C96.232 1.77225 98.4046 3.5598 100.091 6.54947C100.58 7.41667 101.022 8.37472 101.407 9.40918C99.1131 8.84732 96.594 8.51606 93.9503 8.46482V1.45918Z" fill="#97A3B6"/>
</g>
<defs>
<clipPath id="clip0_204_15699">
<rect width="218" height="39" fill="white"/>
</clipPath>
</defs>
</svg>
