<svg width="154" height="27" viewBox="0 0 154 27" fill="none" xmlns="http://www.w3.org/2000/svg">
<path d="M23.1525 20.6945H31.1476L11.3421 0.888916H3.34692L23.1525 20.6945Z" fill="white"/>
<path d="M15.4497 0.888917L34.5419 19.9811V0.888916H29.3752V6.91668L23.3474 0.888916L15.4497 0.888917Z" fill="white"/>
<path d="M0 1.55194V20.6944H5.16667V14.6666L11.1944 20.6944H19.1425L0 1.55194Z" fill="white"/>
<path d="M47.0098 17.7164H51.6391V20.4444H43.4758V5.93646H47.0098V17.7164Z" fill="white"/>
<path d="M57.9542 20.6098C56.8244 20.6098 55.8048 20.3687 54.8955 19.8864C53.9999 19.4042 53.2904 18.7153 52.7668 17.8198C52.2571 16.9242 52.0022 15.8771 52.0022 14.6784C52.0022 13.4936 52.2639 12.4533 52.7875 11.5578C53.3111 10.6484 54.0275 9.95268 54.9368 9.47046C55.8462 8.98824 56.8657 8.74713 57.9955 8.74713C59.1253 8.74713 60.1448 8.98824 61.0542 9.47046C61.9635 9.95268 62.6799 10.6484 63.2035 11.5578C63.7271 12.4533 63.9888 13.4936 63.9888 14.6784C63.9888 15.8633 63.7202 16.9104 63.1828 17.8198C62.6593 18.7153 61.9359 19.4042 61.0128 19.8864C60.1035 20.3687 59.0839 20.6098 57.9542 20.6098ZM57.9542 17.5511C58.6293 17.5511 59.2011 17.3031 59.6695 16.8071C60.1517 16.3111 60.3928 15.6016 60.3928 14.6784C60.3928 13.7553 60.1586 13.0458 59.6902 12.5498C59.2355 12.0538 58.6706 11.8058 57.9955 11.8058C57.3066 11.8058 56.7348 12.0538 56.2802 12.5498C55.8255 13.032 55.5982 13.7416 55.5982 14.6784C55.5982 15.6016 55.8186 16.3111 56.2595 16.8071C56.7142 17.3031 57.2791 17.5511 57.9542 17.5511Z" fill="white"/>
<path d="M69.625 8.74713C70.4379 8.74713 71.1475 8.91246 71.7537 9.24313C72.3737 9.5738 72.849 10.0078 73.1797 10.5451V8.91246H76.7137V20.4238C76.7137 21.4847 76.5001 22.4422 76.073 23.2964C75.6597 24.1644 75.019 24.8533 74.151 25.3631C73.2968 25.8729 72.229 26.1278 70.9477 26.1278C69.2392 26.1278 67.8546 25.7213 66.7937 24.9084C65.7328 24.1093 65.1266 23.0209 64.975 21.6431H68.4677C68.5779 22.084 68.8397 22.4284 69.253 22.6764C69.6664 22.9382 70.1761 23.0691 70.7824 23.0691C71.5126 23.0691 72.0912 22.8556 72.5184 22.4284C72.9592 22.0151 73.1797 21.3469 73.1797 20.4238V18.7911C72.8352 19.3284 72.3599 19.7693 71.7537 20.1138C71.1475 20.4444 70.4379 20.6098 69.625 20.6098C68.6744 20.6098 67.8132 20.3687 67.0417 19.8864C66.2701 19.3904 65.657 18.6947 65.2024 17.7991C64.7615 16.8898 64.541 15.8427 64.541 14.6578C64.541 13.4729 64.7615 12.4327 65.2024 11.5371C65.657 10.6416 66.2701 9.95268 67.0417 9.47046C67.8132 8.98824 68.6744 8.74713 69.625 8.74713ZM73.1797 14.6784C73.1797 13.7967 72.9317 13.1009 72.4357 12.5911C71.9535 12.0813 71.361 11.8264 70.6584 11.8264C69.9557 11.8264 69.3564 12.0813 68.8604 12.5911C68.3781 13.0871 68.137 13.776 68.137 14.6578C68.137 15.5396 68.3781 16.2422 68.8604 16.7658C69.3564 17.2756 69.9557 17.5304 70.6584 17.5304C71.361 17.5304 71.9535 17.2756 72.4357 16.7658C72.9317 16.256 73.1797 15.5602 73.1797 14.6784Z" fill="white"/>
<path d="M83.8995 20.6098C82.7697 20.6098 81.7502 20.3687 80.8408 19.8864C79.9453 19.4042 79.2357 18.7153 78.7122 17.8198C78.2024 16.9242 77.9475 15.8771 77.9475 14.6784C77.9475 13.4936 78.2093 12.4533 78.7328 11.5578C79.2564 10.6484 79.9728 9.95268 80.8822 9.47046C81.7915 8.98824 82.8111 8.74713 83.9408 8.74713C85.0706 8.74713 86.0902 8.98824 86.9995 9.47046C87.9088 9.95268 88.6253 10.6484 89.1488 11.5578C89.6724 12.4533 89.9342 13.4936 89.9342 14.6784C89.9342 15.8633 89.6655 16.9104 89.1282 17.8198C88.6046 18.7153 87.8813 19.4042 86.9582 19.8864C86.0488 20.3687 85.0293 20.6098 83.8995 20.6098ZM83.8995 17.5511C84.5746 17.5511 85.1464 17.3031 85.6148 16.8071C86.0971 16.3111 86.3382 15.6016 86.3382 14.6784C86.3382 13.7553 86.104 13.0458 85.6355 12.5498C85.1808 12.0538 84.616 11.8058 83.9408 11.8058C83.252 11.8058 82.6802 12.0538 82.2255 12.5498C81.7708 13.032 81.5435 13.7416 81.5435 14.6784C81.5435 15.6016 81.764 16.3111 82.2048 16.8071C82.6595 17.3031 83.2244 17.5511 83.8995 17.5511Z" fill="white"/>
<path d="M92.9664 7.71378C92.3464 7.71378 91.8366 7.53466 91.437 7.17644C91.0513 6.80444 90.8584 6.34978 90.8584 5.81244C90.8584 5.26133 91.0513 4.80666 91.437 4.44844C91.8366 4.07644 92.3464 3.89044 92.9664 3.89044C93.5726 3.89044 94.0686 4.07644 94.4544 4.44844C94.8539 4.80666 95.0537 5.26133 95.0537 5.81244C95.0537 6.34978 94.8539 6.80444 94.4544 7.17644C94.0686 7.53466 93.5726 7.71378 92.9664 7.71378ZM94.723 8.91244V20.4444H91.189V8.91244H94.723Z" fill="white"/>
<path d="M100.198 10.5451C100.543 10.0078 101.018 9.5738 101.624 9.24313C102.23 8.91246 102.94 8.74713 103.753 8.74713C104.704 8.74713 105.565 8.98824 106.336 9.47046C107.108 9.95268 107.714 10.6416 108.155 11.5371C108.61 12.4327 108.837 13.4729 108.837 14.6578C108.837 15.8427 108.61 16.8898 108.155 17.7991C107.714 18.6947 107.108 19.3904 106.336 19.8864C105.565 20.3687 104.704 20.6098 103.753 20.6098C102.954 20.6098 102.244 20.4444 101.624 20.1138C101.018 19.7831 100.543 19.356 100.198 18.8324V25.9418H96.6643V8.91246H100.198V10.5451ZM105.241 14.6578C105.241 13.776 104.993 13.0871 104.497 12.5911C104.015 12.0813 103.415 11.8264 102.699 11.8264C101.996 11.8264 101.397 12.0813 100.901 12.5911C100.419 13.1009 100.178 13.7967 100.178 14.6784C100.178 15.5602 100.419 16.256 100.901 16.7658C101.397 17.2756 101.996 17.5304 102.699 17.5304C103.402 17.5304 104.001 17.2756 104.497 16.7658C104.993 16.2422 105.241 15.5396 105.241 14.6578Z" fill="white"/>
<path d="M114.762 20.6098C113.756 20.6098 112.861 20.4376 112.076 20.0931C111.29 19.7487 110.67 19.2802 110.216 18.6878C109.761 18.0816 109.506 17.4064 109.451 16.6624H112.944C112.985 17.062 113.171 17.3858 113.502 17.6338C113.832 17.8818 114.239 18.0058 114.721 18.0058C115.162 18.0058 115.499 17.9231 115.734 17.7578C115.982 17.5787 116.106 17.3513 116.106 17.0758C116.106 16.7451 115.933 16.504 115.589 16.3524C115.244 16.1871 114.686 16.008 113.915 15.8151C113.088 15.6222 112.399 15.4224 111.848 15.2158C111.297 14.9953 110.822 14.6578 110.422 14.2031C110.023 13.7347 109.823 13.1078 109.823 12.3224C109.823 11.6611 110.002 11.0618 110.36 10.5244C110.732 9.97335 111.27 9.53935 111.972 9.22246C112.689 8.90557 113.536 8.74713 114.514 8.74713C115.961 8.74713 117.098 9.10535 117.924 9.8218C118.765 10.5382 119.247 11.4889 119.371 12.6738H116.106C116.05 12.2742 115.871 11.9573 115.568 11.7231C115.279 11.4889 114.893 11.3718 114.411 11.3718C113.998 11.3718 113.681 11.4544 113.46 11.6198C113.24 11.7713 113.13 11.9849 113.13 12.2604C113.13 12.5911 113.302 12.8391 113.646 13.0044C114.004 13.1698 114.556 13.3351 115.3 13.5004C116.154 13.7209 116.85 13.9413 117.387 14.1618C117.924 14.3684 118.393 14.7129 118.792 15.1951C119.206 15.6636 119.419 16.2973 119.433 17.0964C119.433 17.7716 119.24 18.3778 118.854 18.9151C118.482 19.4387 117.938 19.852 117.222 20.1551C116.519 20.4582 115.699 20.6098 114.762 20.6098Z" fill="white"/>
<path d="M132.362 8.91241V20.4444H128.828V18.8738C128.47 19.3836 127.981 19.7969 127.361 20.1138C126.755 20.4169 126.08 20.5684 125.336 20.5684C124.454 20.5684 123.675 20.3756 123 19.9898C122.325 19.5902 121.802 19.0184 121.43 18.2744C121.058 17.5304 120.872 16.6556 120.872 15.6498V8.91241H124.385V15.1744C124.385 15.946 124.585 16.5453 124.984 16.9724C125.384 17.3996 125.921 17.6131 126.596 17.6131C127.285 17.6131 127.829 17.3996 128.229 16.9724C128.629 16.5453 128.828 15.946 128.828 15.1744V8.91241H132.362Z" fill="white"/>
<path d="M148.995 8.78845C150.428 8.78845 151.565 9.22245 152.405 10.0904C153.26 10.9584 153.687 12.164 153.687 13.7071V20.4444H150.173V14.1824C150.173 13.4384 149.974 12.8667 149.574 12.4671C149.188 12.0538 148.651 11.8471 147.962 11.8471C147.273 11.8471 146.729 12.0538 146.329 12.4671C145.944 12.8667 145.751 13.4384 145.751 14.1824V20.4444H142.237V14.1824C142.237 13.4384 142.038 12.8667 141.638 12.4671C141.252 12.0538 140.715 11.8471 140.026 11.8471C139.337 11.8471 138.793 12.0538 138.393 12.4671C138.008 12.8667 137.815 13.4384 137.815 14.1824V20.4444H134.281V8.91245H137.815V10.3591C138.173 9.8769 138.641 9.49801 139.22 9.22245C139.799 8.93312 140.453 8.78845 141.183 8.78845C142.051 8.78845 142.823 8.97445 143.498 9.34645C144.187 9.71845 144.724 10.2489 145.11 10.9378C145.51 10.304 146.054 9.78734 146.743 9.38779C147.432 8.98823 148.183 8.78845 148.995 8.78845Z" fill="white"/>
</svg>
