<svg width="20" height="20" viewBox="0 0 20 20" fill="none" xmlns="http://www.w3.org/2000/svg">
<path d="M17.8417 9.64984L10.3417 2.14984C10.0417 1.84984 9.62508 1.6665 9.16675 1.6665H3.33341C2.41675 1.6665 1.66675 2.4165 1.66675 3.33317V9.1665C1.66675 9.62484 1.85008 10.0415 2.15841 10.3498L9.65842 17.8498C9.95842 18.1498 10.3751 18.3332 10.8334 18.3332C11.2917 18.3332 11.7084 18.1498 12.0084 17.8415L17.8417 12.0082C18.1501 11.7082 18.3334 11.2915 18.3334 10.8332C18.3334 10.3748 18.1417 9.94984 17.8417 9.64984ZM10.8334 16.6748L3.33341 9.1665V3.33317H9.16675V3.32484L16.6667 10.8248L10.8334 16.6748Z" fill="#049F6C"/>
<path d="M5.41675 6.6665C6.1071 6.6665 6.66675 6.10686 6.66675 5.4165C6.66675 4.72615 6.1071 4.1665 5.41675 4.1665C4.72639 4.1665 4.16675 4.72615 4.16675 5.4165C4.16675 6.10686 4.72639 6.6665 5.41675 6.6665Z" fill="#049F6C"/>
<path d="M7.41675 10.4582C7.41675 10.9332 7.60842 11.3498 7.91675 11.6665L10.8334 14.5832L13.7501 11.6665C14.0584 11.3582 14.2501 10.9248 14.2501 10.4582C14.2501 9.5165 13.4834 8.74984 12.5417 8.74984C12.0667 8.74984 11.6417 8.9415 11.3334 9.24984L10.8334 9.74984L10.3334 9.25817C10.0251 8.9415 9.59175 8.74984 9.12508 8.74984C8.18341 8.74984 7.41675 9.5165 7.41675 10.4582Z" fill="#049F6C"/>
</svg>
