<svg width="185" height="41" viewBox="0 0 185 41" fill="none" xmlns="http://www.w3.org/2000/svg">
<g clip-path="url(#clip0_204_15676)">
<path fill-rule="evenodd" clip-rule="evenodd" d="M58.7197 2.72861C58.7197 1.33922 59.8522 0.212891 61.2494 0.212891H65.6561C66.6505 0.212891 67.6141 0.55559 68.383 1.18265L69.7235 2.27593L69.7571 2.30634C69.788 2.29596 69.8189 2.28582 69.85 2.27593C72.2685 1.50554 75.2028 1.35903 78.1977 1.35903C81.1926 1.35903 84.127 1.50554 86.5455 2.27593C86.5765 2.28582 86.6075 2.29596 86.6384 2.30634L86.6719 2.27593L88.0125 1.18265C88.7813 0.55559 89.745 0.212891 90.7393 0.212891H95.1461C96.5433 0.212891 97.6757 1.33922 97.6757 2.72861V4.28379C97.6757 5.48704 97.1661 6.63463 96.2717 7.44503L95.1903 8.42502C94.6623 8.90344 94.0287 9.25162 93.3404 9.44144L93.0846 9.512C94.0867 11.8899 94.6403 14.4317 94.6403 16.4879C94.6403 24.7593 89.4942 28.3316 84.9599 31.4792C81.3891 33.958 78.1977 36.1733 78.1977 40.2129C78.1977 36.1733 75.0064 33.958 71.4356 31.4792C66.9013 28.3316 61.7552 24.7593 61.7552 16.4879C61.7552 14.4317 62.3088 11.8899 63.3109 9.512L63.0551 9.44144C62.3668 9.25162 61.7331 8.90344 61.2052 8.42502L60.1237 7.44503C59.2294 6.63463 58.7197 5.48704 58.7197 4.28379V2.72861ZM81.4863 23.2501C81.4863 23.6453 81.313 24.0242 81.0047 24.3037C80.6963 24.5831 80.2781 24.7401 79.8419 24.7401C79.4655 24.7401 79.1023 24.623 78.8116 24.4112C79.3063 25.7282 80.5724 26.9761 82.4981 24.9693C84.1981 23.1046 82.4225 19.1717 80.6926 16.8379C80.1161 16.06 79.1695 15.6856 78.1977 15.6856C77.226 15.6856 76.2794 16.06 75.7028 16.8379C73.973 19.1717 72.1974 23.1046 73.8974 24.9693C75.8231 26.9761 77.0891 25.7282 77.5839 24.4112C77.2932 24.623 76.93 24.7401 76.5535 24.7401C76.1174 24.7401 75.6991 24.5831 75.3908 24.3037C75.0825 24.0242 74.9092 23.6453 74.9092 23.2501H81.4863ZM71.9011 11.608H67.3204L70.9304 14.4827C71.7248 15.1152 72.886 14.913 73.3775 14.0565C73.9981 12.9751 73.1738 11.608 71.9011 11.608ZM84.4944 11.608H89.075L85.4651 14.4827C84.6707 15.1152 83.5095 14.913 83.018 14.0565C82.3973 12.9751 83.2217 11.608 84.4944 11.608Z" fill="#97A3B6"/>
<path d="M103.132 28.5462H107.19V13.1562H103.132V28.5462ZM103.132 10.7562H107.19V7.09619H103.132V10.7562Z" fill="#97A3B6"/>
<path d="M109.806 33.5863H113.864V26.8063H113.923C114.789 28.1263 116.191 28.9963 118.34 28.9963C122.278 28.9963 124.964 25.8463 124.964 20.8663C124.964 16.0663 122.368 12.7363 118.31 12.7363C116.221 12.7363 114.789 13.7263 113.804 15.0763H113.715V13.1563H109.806V33.5863ZM117.474 25.6063C115.057 25.6063 113.774 23.7763 113.774 20.9863C113.774 18.2263 114.789 16.0363 117.325 16.0363C119.831 16.0363 120.846 18.0763 120.846 20.9863C120.846 23.8963 119.533 25.6063 117.474 25.6063Z" fill="#97A3B6"/>
<path d="M133.059 28.9963C136.878 28.9963 139.504 27.1363 139.504 24.0463C139.504 20.4463 136.669 19.7263 134.103 19.1863C131.925 18.7363 129.896 18.6163 129.896 17.2963C129.896 16.1863 130.94 15.5863 132.522 15.5863C134.252 15.5863 135.297 16.1863 135.476 17.8363H139.146C138.847 14.7463 136.61 12.7363 132.581 12.7363C129.09 12.7363 126.345 14.3263 126.345 17.6563C126.345 21.0163 129.031 21.7663 131.776 22.3063C133.864 22.7263 135.804 22.8763 135.804 24.3463C135.804 25.4263 134.789 26.1163 132.999 26.1163C131.179 26.1163 129.926 25.3363 129.657 23.5663H125.897C126.136 26.8363 128.613 28.9963 133.059 28.9963Z" fill="#97A3B6"/>
<path d="M154.912 28.5463V13.1562H150.854V22.0363C150.854 24.0763 149.69 25.5163 147.78 25.5163C146.05 25.5163 145.244 24.5263 145.244 22.7263V13.1562H141.216V23.4163C141.216 26.7763 143.125 28.9663 146.527 28.9663C148.675 28.9663 149.869 28.1563 150.913 26.7463H151.003V28.5463H154.912Z" fill="#97A3B6"/>
<path d="M157.537 28.5463H161.595V19.6063C161.595 17.5663 162.699 16.2463 164.34 16.2463C165.832 16.2463 166.697 17.1463 166.697 18.8863V28.5463H170.755V19.6063C170.755 17.5663 171.8 16.2463 173.5 16.2463C174.992 16.2463 175.858 17.1463 175.858 18.8863V28.5463H179.916V18.1963C179.916 14.8363 178.095 12.7363 174.873 12.7363C172.933 12.7363 171.322 13.7563 170.278 15.4363H170.218C169.472 13.8163 167.92 12.7363 165.981 12.7363C163.862 12.7363 162.37 13.8163 161.535 15.2263H161.445V13.1563H157.537V28.5463Z" fill="#97A3B6"/>
<path d="M0.680176 28.5462H4.73824V7.09619H0.680176V28.5462Z" fill="#97A3B6"/>
<path d="M14.6609 28.9963C19.4052 28.9963 22.6577 25.4563 22.6577 20.8663C22.6577 16.2763 19.4052 12.7363 14.6609 12.7363C9.91648 12.7363 6.66406 16.2763 6.66406 20.8663C6.66406 25.4563 9.91648 28.9963 14.6609 28.9963ZM14.6609 25.8763C12.1544 25.8763 10.7819 23.8663 10.7819 20.8663C10.7819 17.8663 12.1544 15.8263 14.6609 15.8263C17.1375 15.8263 18.5399 17.8663 18.5399 20.8663C18.5399 23.8663 17.1375 25.8763 14.6609 25.8763Z" fill="#97A3B6"/>
<path d="M31.2879 33.7963C33.5556 33.7963 35.525 33.2563 36.808 32.0563C37.9419 31.0063 38.6282 29.5363 38.6282 27.3763V13.1563H34.7193V14.7763H34.6596C33.7346 13.4863 32.3322 12.7363 30.4225 12.7363C26.5435 12.7363 23.7983 15.6763 23.7983 20.2663C23.7983 24.9163 27.1403 27.6163 30.5419 27.6163C32.4814 27.6163 33.6451 26.8363 34.5403 25.8163H34.6298V27.4963C34.6298 29.5963 33.5258 30.7063 31.2282 30.7063C29.3483 30.7063 28.483 29.9563 28.1548 28.9963H24.1266C24.5443 31.9963 27.1104 33.7963 31.2879 33.7963ZM31.2282 24.3463C29.1395 24.3463 27.7669 22.8163 27.7669 20.2063C27.7669 17.6263 29.1395 16.0063 31.1983 16.0063C33.6451 16.0063 34.8387 17.9263 34.8387 20.1763C34.8387 22.4563 33.7943 24.3463 31.2282 24.3463Z" fill="#97A3B6"/>
<path d="M48.4919 28.9963C53.2362 28.9963 56.4887 25.4563 56.4887 20.8663C56.4887 16.2763 53.2362 12.7363 48.4919 12.7363C43.7475 12.7363 40.4951 16.2763 40.4951 20.8663C40.4951 25.4563 43.7475 28.9963 48.4919 28.9963ZM48.4919 25.8763C45.9854 25.8763 44.6129 23.8663 44.6129 20.8663C44.6129 17.8663 45.9854 15.8263 48.4919 15.8263C50.9685 15.8263 52.3709 17.8663 52.3709 20.8663C52.3709 23.8663 50.9685 25.8763 48.4919 25.8763Z" fill="#97A3B6"/>
<path d="M179.732 9.79639C179.732 9.10603 180.288 8.54639 180.976 8.54639H183.462C184.149 8.54639 184.706 9.10603 184.706 9.79639C184.706 10.4867 184.149 11.0464 183.462 11.0464H180.976C180.288 11.0464 179.732 10.4867 179.732 9.79639Z" fill="#97A3B6"/>
</g>
<defs>
<clipPath id="clip0_204_15676">
<rect width="185" height="41" fill="white"/>
</clipPath>
</defs>
</svg>
