<svg width="30" height="30" viewBox="0 0 30 30" fill="none" xmlns="http://www.w3.org/2000/svg">
<path d="M15 28.1836C22.2811 28.1836 28.1836 22.2811 28.1836 15C28.1836 7.7189 22.2811 1.81641 15 1.81641C7.7189 1.81641 1.81641 7.7189 1.81641 15C1.81641 22.2811 7.7189 28.1836 15 28.1836Z" fill="url(#paint0_linear_162_1373)"/>
<path d="M17.8008 7.67578H12.2051C9.70898 7.67578 7.68164 9.70312 7.68164 12.1992V17.7949C7.68164 20.291 9.70898 22.3184 12.2051 22.3184H17.8008C20.2969 22.3184 22.3242 20.291 22.3242 17.7949V12.1992C22.3242 9.70312 20.2969 7.67578 17.8008 7.67578ZM20.6895 17.8008C20.6895 19.3945 19.3945 20.6953 17.7949 20.6953H12.1992C10.6055 20.6953 9.30469 19.4004 9.30469 17.8008V12.2051C9.30469 10.6113 10.5996 9.31055 12.1992 9.31055H17.7949C19.3887 9.31055 20.6895 10.6055 20.6895 12.2051V17.8008Z" fill="white"/>
<path d="M15 11.2559C12.9375 11.2559 11.2559 12.9375 11.2559 15C11.2559 17.0625 12.9375 18.7441 15 18.7441C17.0625 18.7441 18.7441 17.0625 18.7441 15C18.7441 12.9375 17.0625 11.2559 15 11.2559ZM15 17.2734C13.7461 17.2734 12.7266 16.2539 12.7266 15C12.7266 13.7461 13.7461 12.7266 15 12.7266C16.2539 12.7266 17.2734 13.7461 17.2734 15C17.2734 16.2539 16.2539 17.2734 15 17.2734Z" fill="white"/>
<path d="M19.0292 11.6664C19.3742 11.6104 19.6085 11.2855 19.5526 10.9405C19.4967 10.5956 19.1717 10.3613 18.8267 10.4172C18.4818 10.4731 18.2475 10.7981 18.3034 11.143C18.3593 11.488 18.6843 11.7223 19.0292 11.6664Z" fill="white"/>
<defs>
<linearGradient id="paint0_linear_162_1373" x1="4.96166" y1="25.0383" x2="23.697" y2="6.30299" gradientUnits="userSpaceOnUse">
<stop stop-color="#FEE411"/>
<stop offset="0.0518459" stop-color="#FEDB16"/>
<stop offset="0.1381" stop-color="#FEC125"/>
<stop offset="0.2481" stop-color="#FE983D"/>
<stop offset="0.3762" stop-color="#FE5F5E"/>
<stop offset="0.5" stop-color="#FE2181"/>
<stop offset="1" stop-color="#9000DC"/>
</linearGradient>
</defs>
</svg>
