<svg width="110" height="105" viewBox="0 0 110 105" fill="none" xmlns="http://www.w3.org/2000/svg">
<path d="M81.4925 72.0713C84.0376 77.0912 81.217 83.6712 75.1899 86.7871C69.1714 89.9002 62.2159 88.355 59.6736 83.3438C57.1313 78.3326 78.9501 67.0601 81.4925 72.0713Z" fill="#FFD400"/>
<path d="M72.6263 72.1829C74.3435 74.5525 75.274 77.5742 75.5083 80.3992C75.697 82.6511 75.4935 84.9155 74.7985 86.974C74.9263 86.9034 75.0541 86.8616 75.1819 86.7909C81.209 83.675 84.0297 77.0951 81.4845 72.0752C80.5148 70.1748 76.7649 70.6189 72.6263 72.1829Z" fill="#FFC000"/>
<path fill-rule="evenodd" clip-rule="evenodd" d="M101.249 54.1371C103.259 58.0978 101.759 62.9162 97.8933 64.9115L44.3431 92.5645C40.4775 94.5599 35.7237 92.9702 33.7132 89.0095C31.7055 85.0576 33.2031 80.2305 37.0602 78.2379L38.2474 77.6284L32.017 60.201C27.9496 50.4343 29.6291 39.9568 36.1539 32.4464C35.5655 31.771 35.0367 31.0184 34.613 30.1832C31.9171 24.8751 33.931 18.3948 39.1116 15.7193C44.3008 13.0409 50.6856 15.1775 53.3843 20.4943C53.771 21.2451 54.0441 22.0235 54.2434 22.8067C63.9533 21.611 73.0524 26.2252 79.5402 35.6639L89.8209 50.9971L90.619 50.5821C94.4846 48.5867 99.2412 50.1851 101.249 54.1371ZM45.0012 21.8831C44.8021 21.4758 44.5179 21.1831 44.1513 20.9269C44.1418 20.9171 44.1295 20.9083 44.1143 20.9004C43.9325 20.8056 43.7591 20.7079 43.5773 20.642C43.5564 20.636 43.5394 20.6319 43.5261 20.6298C43.3272 20.5791 43.1283 20.538 42.9295 20.5066C42.884 20.5022 42.8423 20.4997 42.8044 20.4993C42.6113 20.5142 42.4096 20.5319 42.2164 20.5468C42.2031 20.5447 42.1908 20.5455 42.1795 20.5492C42.1492 20.5527 42.1217 20.5552 42.0971 20.5568C41.7997 20.609 41.5375 20.73 41.3103 20.9199C41.0623 21.0652 40.8663 21.2641 40.7225 21.5167C40.5616 21.7557 40.468 22.0176 40.4416 22.3025C40.4218 22.3861 40.4133 22.4757 40.402 22.5565C40.3925 22.5853 40.3821 22.6112 40.3708 22.6342C40.2592 23.0048 40.2405 23.3804 40.3145 23.7611C40.3809 23.9451 40.4473 24.129 40.5137 24.313C40.6919 24.6661 40.9458 24.9527 41.2755 25.1727C41.2906 25.1806 41.3058 25.1885 41.3209 25.1964C41.5057 25.3 41.6847 25.3861 41.8694 25.4607C41.8997 25.4765 41.9319 25.4885 41.966 25.4966C41.9717 25.4948 41.9745 25.4938 41.9745 25.4938C42.1166 25.5245 42.3893 25.58 42.5286 25.602C42.5361 25.606 42.5428 25.607 42.5485 25.6052C42.5617 25.6073 42.575 25.6094 42.5882 25.6115C42.5958 25.6154 42.6053 25.6155 42.6166 25.6118C42.6166 25.6118 42.6195 25.6109 42.6252 25.609C42.7558 25.6049 43.0513 25.5855 43.1877 25.5699C43.2009 25.572 43.2132 25.5712 43.2246 25.5675C43.2416 25.5619 43.2558 25.5573 43.2672 25.5535C43.2729 25.5517 43.2786 25.5498 43.2842 25.548C43.4035 25.509 43.7188 25.406 43.8353 25.3583C43.841 25.3565 43.8438 25.3556 43.8438 25.3556C43.8722 25.3463 43.8959 25.3321 43.9148 25.3131C44.0871 25.2054 44.2537 25.0899 44.4147 24.9666C44.4241 24.9571 44.4336 24.9476 44.4431 24.9381C44.4525 24.9286 44.462 24.9191 44.4715 24.9095C44.4771 24.9077 44.4819 24.9029 44.4857 24.8953C44.5765 24.7981 44.7582 24.5749 44.8434 24.4603C44.8491 24.4584 44.851 24.4546 44.8491 24.4488C44.868 24.4298 44.8832 24.4087 44.8945 24.3858C44.9967 24.2078 45.0847 24.0152 45.1527 23.8194C45.1546 23.8059 45.1575 23.7954 45.1613 23.7877C45.2151 23.6062 45.2633 23.2338 45.2718 23.2021C45.2755 23.1752 45.2774 23.1521 45.2774 23.1328C45.2688 22.9332 45.2488 22.7277 45.2231 22.5336C45.225 22.5201 45.2241 22.5076 45.2203 22.496C45.1975 22.3974 45.1378 22.2434 45.1122 22.1939C45.0951 22.1416 45.0496 21.9734 45.0012 21.8831Z" fill="#FFD400"/>
<path d="M44.0982 74.2201C34.1084 55.418 32.959 40.4664 42.0861 32.7807C34.8775 30.6916 34.5728 23.5806 35.9821 18.2232C33.2649 21.4244 32.5768 26.1316 34.6329 30.1738C35.0566 31.009 35.5854 31.7617 36.1738 32.437C29.6489 39.9474 27.9694 50.425 32.0369 60.1916L38.2673 77.619L37.0801 78.2285C33.223 80.2211 31.7253 85.0482 33.733 89.0002C35.7436 92.9608 40.4973 94.5505 44.3629 92.5552L47.8337 90.7659C41.4509 92.5906 35.0404 84.2834 41.8501 78.3091C41.887 78.2778 43.9136 74.4347 44.0982 74.2201Z" fill="#FFDF00"/>
<path d="M90.6245 50.5809L89.8264 50.9958L79.5458 35.6627C73.058 26.2239 63.9589 21.6098 54.249 22.8055C54.0497 22.0223 53.7766 21.2439 53.3899 20.493C51.2115 16.1919 46.6109 13.9739 42.1821 14.7072C43.1912 15.7464 45.8704 15.9798 47.6788 19.1486C50.9772 24.9153 50.3677 27.5533 50.8766 28.2161C51.1637 28.5753 63.7388 24.6604 74.3905 43.6125C76.9923 48.2283 80.49 54.8072 78.4726 59.8619C85.0069 60.0602 88.6998 64.898 86.4242 70.8372L97.8989 64.9103C101.764 62.9149 103.265 58.0965 101.254 54.1359C99.2467 50.1839 94.4901 48.5855 90.6245 50.5809Z" fill="#FFC000"/>
<path d="M90.6278 50.5823L89.8297 50.9972L89.0617 49.2527C88.2609 49.977 56.6393 69.9559 37.451 75.2214L38.242 77.585C45.4552 77.4073 85.7676 57.8477 90.6278 50.5823Z" fill="#FF9E00"/>
<path d="M42.4232 36.832C41.4398 36.0736 40.0363 35.9922 38.9883 36.6238C38.9003 36.6718 38.8293 36.7432 38.7526 36.7972C38.7441 36.8 38.7327 36.794 38.7242 36.7968C37.6931 37.1336 36.9377 37.766 36.3131 38.6544C35.4472 39.9013 34.965 41.4276 34.7981 42.9377C34.5973 44.777 35.0444 46.8963 36.846 47.7634C38.5169 48.5768 40.42 47.7623 41.769 46.724C43.8052 45.1624 44.9116 42.0247 44.1348 39.5022C43.8047 38.434 43.3184 37.5228 42.4232 36.832Z" fill="#FCF600"/>
<path d="M40.7063 51.0587C40.4505 50.776 40.1389 50.5725 39.7714 50.4484L39.2372 50.3433C38.8451 50.3172 38.4768 50.3925 38.1322 50.5693L37.9163 50.688C37.6436 50.8157 37.4269 50.9989 37.266 51.2379C37.0672 51.4378 36.9291 51.6789 36.8516 51.9613C36.7532 52.2376 36.7278 52.5158 36.7753 52.7959C36.7773 53.0909 36.8504 53.3723 36.9945 53.6401C37.1025 53.7976 37.2143 53.9571 37.3299 54.1185C37.5877 54.4071 37.8965 54.6115 38.2564 54.7317L38.8019 54.8427C39.1921 54.863 39.5595 54.7848 39.9041 54.6079L40.1228 54.4979C40.3898 54.3722 40.6066 54.1889 40.7731 53.9481C40.9719 53.7482 41.11 53.5071 41.1875 53.2247C41.2802 52.9502 41.3056 52.672 41.2638 52.3901C41.2618 52.0951 41.1887 51.8137 41.0447 51.5459C40.9291 51.3844 40.8163 51.222 40.7063 51.0587Z" fill="#FCF600"/>
<path d="M51.8901 80.8191C47.5319 80.5558 43.2173 82.3893 38.8879 82.8493C36.243 83.1252 37.1173 87.3028 39.7593 86.9892C44.2506 86.4475 49.469 85.5333 52.3365 81.6951C52.592 81.3513 52.285 80.8443 51.8901 80.8191Z" fill="#FCF600"/>
<path d="M58.3432 76.8205L55.7046 78.1258C54.3015 78.8251 55.4447 81.0834 56.8222 80.3346L59.4125 78.9389C60.7275 78.2298 59.6839 76.1608 58.3432 76.8205Z" fill="#FCF600"/>
<path fill-rule="evenodd" clip-rule="evenodd" d="M44.1018 26.5083C42.4316 27.0539 40.5505 26.2899 39.7088 24.637C38.7817 22.8094 39.4766 20.5773 41.2688 19.6545C43.0411 18.7285 45.2546 19.4707 46.1817 21.2982C47.1088 23.1258 46.4167 25.3666 44.633 26.2866C44.4607 26.375 44.2836 26.4489 44.1018 26.5083ZM42.2467 20.8292C42.1388 20.8645 42.0337 20.9085 41.9314 20.9611C40.8493 21.5171 40.4238 22.8707 40.984 23.9794C41.5528 25.0853 42.8854 25.5272 43.9704 24.98C45.0497 24.4154 45.4752 23.0618 44.9064 21.9558C44.4002 20.9548 43.2608 20.498 42.2467 20.8292Z" fill="#841918"/>
<path d="M69.6003 15.5266C70.0795 15.6271 70.5531 15.7488 71.021 15.8915C71.235 15.9502 71.4481 16.0155 71.6603 16.0876C71.7664 16.1236 71.8696 16.1606 71.97 16.1985C72.2257 16.2884 71.5267 16.0252 71.8961 16.1744C72.7855 16.5297 73.6522 16.931 74.4906 17.4187C74.8969 17.6523 75.2806 17.9318 75.687 18.1654C75.5165 18.0765 75.3459 17.9298 75.6159 18.1211C75.7069 18.1878 75.795 18.2554 75.8803 18.324C76.0792 18.4711 76.2762 18.622 76.4714 18.7767C77.216 19.3818 77.9181 20.0586 78.5662 20.7723C78.9187 21.1584 79.6148 21.3552 80.1091 21.3383C80.6375 21.3103 81.2738 21.0349 81.6145 20.6055C82.4038 19.6151 82.2384 18.4159 81.4141 17.5092C78.5374 14.3327 74.6186 12.1232 70.4817 11.2382C69.3764 11.0016 68.1239 11.7288 67.9342 12.909C67.7359 14.0631 68.4155 15.2774 69.6003 15.5266Z" fill="#841918"/>
<path d="M74.9207 10.9091C75.9172 11.4769 76.9147 12.0475 77.9131 12.6211C78.1613 12.7649 78.4265 12.8358 78.7087 12.8335C78.9966 12.8873 79.2779 12.8629 79.5524 12.7604C79.8403 12.6792 80.0845 12.5319 80.2852 12.3186C80.5143 12.1538 80.6865 11.94 80.8019 11.6774C81.029 11.1598 81.1224 10.5509 80.9233 9.99903C80.8342 9.82249 80.7479 9.64502 80.6645 9.46662C80.4522 9.14395 80.1755 8.89372 79.8345 8.71592C78.8361 8.14236 77.8386 7.5717 76.8421 7.00394C76.5939 6.86008 76.3278 6.78636 76.0437 6.78277C75.7577 6.73482 75.4774 6.76211 75.2028 6.86466C74.915 6.94583 74.6698 7.0902 74.4672 7.29775C74.24 7.46836 74.0687 7.68498 73.9533 7.9476C73.7263 8.46519 73.6243 9.07688 73.832 9.62599C73.9211 9.80253 74.0073 9.98 74.0908 10.1584C74.3031 10.4811 74.5797 10.7313 74.9207 10.9091Z" fill="#841918"/>
<path d="M17.4279 52.1485C17.4362 51.7698 17.4474 51.3999 17.4643 51.0184C17.4897 50.7209 17.4473 51.1396 17.453 51.2149C17.4444 51.1309 17.4699 51.0358 17.4813 50.955C17.4963 50.7702 17.5171 50.5834 17.5435 50.3949C17.6397 49.6501 17.7842 48.9088 17.9799 48.1798C18.065 47.8339 18.1728 47.4998 18.2777 47.1571C18.394 46.7913 18.15 47.5169 18.238 47.2665C18.2701 47.1917 18.2985 47.1149 18.3231 47.0362C18.3912 46.8597 18.4593 46.6833 18.5274 46.5068C18.8111 45.8164 19.1375 45.1411 19.498 44.4835C20.06 43.4902 19.565 42.0035 18.5334 41.5307C17.4195 41.0077 16.2322 41.4149 15.6446 42.4744C13.9699 45.4603 13.1364 48.8848 13.121 52.3311C13.1188 53.479 14.2756 54.5375 15.392 54.433C16.6136 54.3328 17.4257 53.3831 17.4279 52.1485Z" fill="#841918"/>
<path d="M11.1276 48.7224C11.5284 47.4283 11.9293 46.1341 12.3302 44.84C12.4058 44.5518 12.4038 44.2665 12.3241 43.984C12.2955 43.6849 12.1931 43.4099 12.0169 43.159C11.7212 42.7157 11.184 42.3128 10.6612 42.2137C10.11 42.1142 9.4879 42.1728 9.01647 42.5196C8.88016 42.6412 8.74101 42.7638 8.59902 42.8873C8.35294 43.1734 8.19117 43.5057 8.11371 43.8845C7.70714 45.1805 7.30247 46.4727 6.89969 47.761C6.83165 48.0532 6.83747 48.3405 6.91716 48.6229C6.94572 48.922 7.04718 49.1942 7.22155 49.4392C7.50871 49.8853 8.0487 50.2969 8.56865 50.3873C9.12837 50.484 9.742 50.4282 10.2134 50.0814C10.3554 49.9579 10.4974 49.8344 10.6394 49.7109C10.8855 49.4248 11.0482 49.0954 11.1276 48.7224Z" fill="#841918"/>
</svg>
