<svg width="155" height="39" viewBox="0 0 155 39" fill="none" xmlns="http://www.w3.org/2000/svg">
<g clip-path="url(#clip0_204_15711)">
<path d="M51.5821 10.0269H48V25.7861H57.9164V22.6981H51.5821V10.0269Z" fill="#97A3B6"/>
<path d="M58.2583 20.4406C58.2583 23.8054 60.5736 26.0415 64.0683 26.0415C67.5412 26.0415 69.8565 23.8054 69.8565 20.4406C69.8565 17.0758 67.5412 14.8184 64.0683 14.8184C60.5736 14.8184 58.2583 17.0758 58.2583 20.4406ZM61.6438 20.4192C61.6438 18.8221 62.6049 17.7573 64.0683 17.7573C65.5099 17.7573 66.471 18.8221 66.471 20.4192C66.471 22.0378 65.5099 23.1026 64.0683 23.1026C62.6049 23.1026 61.6438 22.0378 61.6438 20.4192Z" fill="#97A3B6"/>
<path d="M70.3977 20.2703C70.3977 23.4859 72.5383 25.6581 75.5743 25.6581C77.0378 25.6581 78.3046 25.147 78.938 24.3165V25.786C78.938 27.2554 77.9988 28.235 76.3388 28.235C74.8535 28.235 73.8269 27.5535 73.7614 26.3397H70.354C70.6598 29.2573 72.9751 31.2164 76.1422 31.2164C79.8772 31.2164 82.2362 28.8526 82.2362 25.1044V15.1379H79.2001L79.0254 16.2239C78.4138 15.3508 77.1251 14.7759 75.6399 14.7759C72.5819 14.7759 70.3977 17.0119 70.3977 20.2703ZM73.8051 20.1851C73.8051 18.6517 74.8535 17.6295 76.1859 17.6295C77.7367 17.6295 78.8725 18.6304 78.8725 20.1851C78.8725 21.7397 77.7585 22.8045 76.2077 22.8045C74.8754 22.8045 73.8051 21.7397 73.8051 20.1851Z" fill="#97A3B6"/>
<path d="M83.2168 20.4406C83.2168 23.8054 85.5321 26.0415 89.0269 26.0415C92.4998 26.0415 94.815 23.8054 94.815 20.4406C94.815 17.0758 92.4998 14.8184 89.0269 14.8184C85.5321 14.8184 83.2168 17.0758 83.2168 20.4406ZM86.6024 20.4192C86.6024 18.8221 87.5634 17.7573 89.0269 17.7573C90.4684 17.7573 91.4295 18.8221 91.4295 20.4192C91.4295 22.0378 90.4684 23.1026 89.0269 23.1026C87.5634 23.1026 86.6024 22.0378 86.6024 20.4192Z" fill="#97A3B6"/>
<path d="M97.7151 13.4768C98.7635 13.4768 99.6154 12.6462 99.6154 11.6028C99.6154 10.5592 98.7635 9.75 97.7151 9.75C96.6448 9.75 95.793 10.5592 95.793 11.6028C95.793 12.6462 96.6448 13.4768 97.7151 13.4768ZM96.0114 25.786H99.397V15.1379H96.0114V25.786Z" fill="#97A3B6"/>
<path d="M101.368 30.897H104.688V24.7212C105.321 25.5304 106.763 26.0841 108.27 26.0841C111.524 26.0841 113.49 23.6564 113.403 20.2915C113.315 16.8629 111.284 14.7971 108.248 14.7971C106.697 14.7971 105.234 15.4573 104.622 16.437L104.447 15.1379H101.368V30.897ZM104.753 20.4619C104.753 18.8647 105.845 17.7999 107.418 17.7999C109.012 17.7999 110.017 18.886 110.017 20.4619C110.017 22.0379 109.012 23.1239 107.418 23.1239C105.845 23.1239 104.753 22.0591 104.753 20.4619Z" fill="#97A3B6"/>
<path d="M113.761 22.4211C113.848 24.5721 115.596 26.0628 118.348 26.0628C120.991 26.0628 122.826 24.6998 122.826 22.5063C122.826 20.9305 121.865 19.8869 120.073 19.4609L118.13 18.9924C117.431 18.8221 116.994 18.6517 116.994 18.098C116.994 17.5443 117.452 17.1823 118.13 17.1823C118.894 17.1823 119.396 17.6721 119.375 18.3961H122.411C122.323 16.1813 120.598 14.7971 118.195 14.7971C115.771 14.7971 113.958 16.2027 113.958 18.3323C113.958 19.7591 114.766 20.9305 116.928 21.4842L118.85 21.9739C119.418 22.123 119.658 22.3785 119.658 22.7405C119.658 23.273 119.156 23.6138 118.304 23.6138C117.321 23.6138 116.797 23.1665 116.797 22.4211H113.761Z" fill="#97A3B6"/>
<path d="M127.974 26.0628C129.307 26.0628 130.639 25.4665 131.316 24.5934L131.535 25.786H134.702V15.1379H131.338V20.675C131.338 22.2721 130.858 23.1452 129.307 23.1452C128.105 23.1452 127.319 22.6129 127.319 20.6324V15.1379H123.955V21.8249C123.955 24.3592 125.397 26.0628 127.974 26.0628Z" fill="#97A3B6"/>
<path d="M140.036 25.786V19.9721C140.036 18.1832 141.019 17.6721 141.98 17.6721C143.05 17.6721 143.749 18.311 143.749 19.6314V25.786H147.069V19.9721C147.069 18.162 148.03 17.6509 148.991 17.6509C150.061 17.6509 150.782 18.2897 150.782 19.6314V25.786H154.059V18.8221C154.059 16.3944 152.748 14.7759 149.93 14.7759C148.358 14.7759 147.069 15.5212 146.501 16.6712C145.846 15.5212 144.71 14.7759 142.897 14.7759C141.696 14.7759 140.582 15.3082 139.927 16.1601L139.796 15.1379H136.65V25.786H140.036Z" fill="#97A3B6"/>
<path d="M0 19.5C0 10.3076 0 5.71141 2.92893 2.85571C5.85786 0 10.5719 0 20 0C29.4281 0 34.1421 0 37.0711 2.85571C40 5.71141 40 10.3076 40 19.5C40 28.6924 40 33.2885 37.0711 36.1443C34.1421 39 29.4281 39 20 39C10.5719 39 5.85786 39 2.92893 36.1443C0 33.2885 0 28.6924 0 19.5Z" fill="#97A3B6"/>
<path d="M24.0002 25.3501C24.5525 25.3501 25.0103 25.7909 24.9006 26.3187C24.7067 27.2508 24.2357 28.1147 23.5357 28.7972C22.5981 29.7115 21.3263 30.2251 20.0002 30.2251C18.6741 30.2251 17.4024 29.7115 16.4647 28.7972C15.7647 28.1147 15.2937 27.2508 15.0999 26.3187C14.9901 25.7909 15.4479 25.3501 16.0002 25.3501H24.0002Z" fill="white"/>
<path d="M26.1022 17.3321C25.5687 17.4715 25.242 18.0156 25.5125 18.4851C25.7972 18.9792 26.191 19.4104 26.6701 19.7452C27.4223 20.2707 28.3381 20.5257 29.2616 20.4667C30.185 20.4077 31.0589 20.0383 31.7343 19.4216C32.4098 18.8048 32.8449 17.9787 32.9657 17.0841C33.0865 16.1895 32.8855 15.2818 32.3968 14.5156C31.9081 13.7494 31.162 13.1721 30.2857 12.882C29.4094 12.592 28.4571 12.6072 27.591 12.925C27.0394 13.1274 26.5446 13.4446 26.1384 13.85C25.7525 14.2352 25.9236 14.8433 26.4019 15.1125L26.9092 15.3981C27.6807 15.8325 27.5286 16.9595 26.668 17.1843L26.1022 17.3321Z" fill="white"/>
<path d="M13.8977 17.3321C14.4312 17.4715 14.7579 18.0156 14.4874 18.4851C14.2027 18.9792 13.8089 19.4104 13.3299 19.7452C12.5777 20.2707 11.6618 20.5257 10.7384 20.4667C9.81496 20.4077 8.94107 20.0383 8.26564 19.4216C7.59021 18.8048 7.15502 17.9787 7.03423 17.0841C6.91344 16.1895 7.11451 15.2818 7.6032 14.5156C8.09188 13.7494 8.83794 13.1721 9.71425 12.882C10.5905 12.592 11.5429 12.6072 12.409 12.925C12.9605 13.1274 13.4554 13.4446 13.8616 13.85C14.2475 14.2352 14.0763 14.8433 13.598 15.1125L13.0907 15.3981C12.3192 15.8325 12.4714 16.9595 13.3319 17.1843L13.8977 17.3321Z" fill="white"/>
</g>
<defs>
<clipPath id="clip0_204_15711">
<rect width="155" height="39" fill="white"/>
</clipPath>
</defs>
</svg>
