<svg width="152" height="28" viewBox="0 0 152 28" fill="none" xmlns="http://www.w3.org/2000/svg">
<g clip-path="url(#clip0_232_1959)">
<path d="M85.3118 20.6666H88.563V8.35463H85.3118V20.6666ZM85.3118 6.43465H88.563V3.50665H85.3118V6.43465Z" fill="white"/>
<path d="M90.6582 24.6986H93.9095V19.2746H93.9569C94.6499 20.3306 95.7739 21.0266 97.4947 21.0266C100.65 21.0266 102.802 18.5066 102.802 14.5227C102.802 10.6826 100.722 8.01862 97.471 8.01862C95.7976 8.01862 94.65 8.81067 93.8614 9.89063H93.7896V8.35462H90.6582V24.6986ZM96.8017 18.3146C94.8654 18.3146 93.8377 16.8507 93.8377 14.6186C93.8377 12.4106 94.6499 10.6587 96.6824 10.6587C98.6905 10.6587 99.5028 12.2906 99.5028 14.6186C99.5028 16.9466 98.4513 18.3146 96.8017 18.3146Z" fill="white"/>
<path d="M109.287 21.0266C112.347 21.0266 114.451 19.5387 114.451 17.0666C114.451 14.1867 112.18 13.6106 110.124 13.1787C108.379 12.8187 106.753 12.7226 106.753 11.6667C106.753 10.7786 107.59 10.2987 108.857 10.2987C110.244 10.2987 111.081 10.7786 111.224 12.0986H114.164C113.925 9.62666 112.132 8.01862 108.905 8.01862C106.108 8.01862 103.909 9.29066 103.909 11.9546C103.909 14.6426 106.06 15.2426 108.26 15.6747C109.933 16.0107 111.486 16.1306 111.486 17.3066C111.486 18.1706 110.674 18.7227 109.24 18.7227C107.781 18.7227 106.777 18.0986 106.562 16.6827H103.55C103.741 19.2986 105.726 21.0266 109.287 21.0266Z" fill="white"/>
<path d="M126.795 20.6666V8.35461H123.543V15.4586C123.543 17.0906 122.611 18.2426 121.081 18.2426C119.695 18.2426 119.05 17.4506 119.05 16.0107V8.35461H115.822V16.5626C115.822 19.2506 117.352 21.0026 120.077 21.0026C121.799 21.0026 122.755 20.3546 123.591 19.2267H123.663V20.6666H126.795Z" fill="white"/>
<path d="M128.897 20.6666H132.149V13.5147C132.149 11.8826 133.034 10.8267 134.349 10.8267C135.544 10.8267 136.237 11.5466 136.237 12.9386V20.6666H139.488V13.5147C139.488 11.8826 140.325 10.8267 141.687 10.8267C142.883 10.8267 143.576 11.5466 143.576 12.9386V20.6666H146.827V12.3866C146.827 9.69862 145.369 8.01862 142.787 8.01862C141.233 8.01862 139.942 8.83461 139.105 10.1786H139.058C138.46 8.88263 137.217 8.01862 135.663 8.01862C133.966 8.01862 132.771 8.88263 132.101 10.0106H132.03V8.35462H128.897V20.6666Z" fill="white"/>
<path d="M0.574707 20.6666H3.82587V3.50665H0.574707V20.6666Z" fill="white"/>
<path d="M11.7754 21.0266C15.5764 21.0266 18.1821 18.1947 18.1821 14.5227C18.1821 10.8506 15.5764 8.01862 11.7754 8.01862C7.97435 8.01862 5.36865 10.8506 5.36865 14.5227C5.36865 18.1947 7.97435 21.0266 11.7754 21.0266ZM11.7754 18.5307C9.76732 18.5307 8.66762 16.9226 8.66762 14.5227C8.66762 12.1226 9.76732 10.4907 11.7754 10.4907C13.7596 10.4907 14.8831 12.1226 14.8831 14.5227C14.8831 16.9226 13.7596 18.5307 11.7754 18.5307Z" fill="white"/>
<path d="M25.096 24.8666C26.9128 24.8666 28.4906 24.4347 29.5185 23.4746C30.427 22.6346 30.9768 21.4586 30.9768 19.7307V8.35462H27.8452V9.65067H27.7974C27.0562 8.61866 25.9327 8.01862 24.4027 8.01862C21.295 8.01862 19.0957 10.3706 19.0957 14.0426C19.0957 17.7626 21.7731 19.9226 24.4984 19.9226C26.0522 19.9226 26.9846 19.2986 27.7017 18.4826H27.7734V19.8266C27.7734 21.5066 26.8889 22.3947 25.0482 22.3947C23.5421 22.3947 22.8488 21.7946 22.5859 21.0266H19.3586C19.6933 23.4267 21.7492 24.8666 25.096 24.8666ZM25.0482 17.3066C23.3748 17.3066 22.2752 16.0826 22.2752 13.9947C22.2752 11.9306 23.3748 10.6347 25.0243 10.6347C26.9846 10.6347 27.9408 12.1707 27.9408 13.9706C27.9408 15.7946 27.1041 17.3066 25.0482 17.3066Z" fill="white"/>
<path d="M38.8794 21.0266C42.6804 21.0266 45.2861 18.1947 45.2861 14.5227C45.2861 10.8506 42.6804 8.01862 38.8794 8.01862C35.0784 8.01862 32.4727 10.8506 32.4727 14.5227C32.4727 18.1947 35.0784 21.0266 38.8794 21.0266ZM38.8794 18.5307C36.8713 18.5307 35.7717 16.9226 35.7717 14.5227C35.7717 12.1226 36.8713 10.4907 38.8794 10.4907C40.8635 10.4907 41.9872 12.1226 41.9872 14.5227C41.9872 16.9226 40.8635 18.5307 38.8794 18.5307Z" fill="white"/>
<path d="M148.008 6.33331C148.008 5.78103 148.455 5.33331 149.005 5.33331H150.997C151.547 5.33331 151.993 5.78103 151.993 6.33331C151.993 6.8856 151.547 7.33332 150.997 7.33332H149.005C148.455 7.33332 148.008 6.8856 148.008 6.33331Z" fill="white"/>
<path fill-rule="evenodd" clip-rule="evenodd" d="M65.0028 0C72.7041 0 78.948 6.26802 78.948 14C78.948 21.732 72.7041 28 65.0028 28C57.3012 28 51.0579 21.732 51.0579 14C51.0579 6.26802 57.3012 0 65.0028 0ZM64.4988 1.04761C62.9079 1.27238 61.393 2.55576 60.2171 4.70218C59.876 5.32478 59.5683 6.01262 59.3001 6.75531C60.899 6.35192 62.6555 6.11409 64.4988 6.07731V1.04761ZM58.1215 7.09156C58.455 6.04071 58.863 5.07388 59.3338 4.21445C59.9167 3.15041 60.6085 2.23156 61.388 1.52584C57.1495 2.76166 53.8086 6.11575 52.5777 10.371C53.2806 9.58846 54.1958 8.89392 55.2557 8.30872C56.1118 7.83601 57.0748 7.42637 58.1215 7.09156ZM57.7866 8.27477C57.3848 9.88001 57.1479 11.6434 57.1112 13.494H52.1013C52.3252 11.8968 53.6035 10.376 55.7416 9.19548C56.3617 8.85304 57.0468 8.54406 57.7866 8.27477ZM58.1195 13.494C58.1611 11.4744 58.4508 9.57838 58.9299 7.90314C60.5986 7.4221 62.4871 7.13132 64.4988 7.08953V9.27556C63.7483 11.2043 62.2177 12.7408 60.2965 13.494H58.1195ZM57.1112 14.506H52.1013C52.3252 16.1032 53.6035 17.624 55.7416 18.8045C56.3617 19.147 57.0468 19.4559 57.7866 19.7252C57.3848 18.12 57.1479 16.3566 57.1112 14.506ZM58.9299 20.0969C58.4508 18.4216 58.1611 16.5256 58.1195 14.506H60.2965C62.2177 15.2592 63.7483 16.7957 64.4988 18.7244V20.9105C62.4871 20.8687 60.5986 20.5779 58.9299 20.0969ZM58.1215 20.9084C57.0748 20.5736 56.1118 20.164 55.2557 19.6913C54.1958 19.1061 53.2806 18.4115 52.5777 17.629C53.8086 21.8842 57.1495 25.2384 61.388 26.4741C60.6085 25.7684 59.9167 24.8496 59.3338 23.7855C58.863 22.9261 58.455 21.9593 58.1215 20.9084ZM64.4988 26.9524C62.9079 26.7276 61.393 25.4442 60.2171 23.2978C59.876 22.6752 59.5683 21.9873 59.3001 21.2447C60.899 21.6481 62.6555 21.8859 64.4988 21.9227V26.9524ZM68.6176 26.4741C69.397 25.7684 70.0888 24.8496 70.6716 23.7855C71.1423 22.9261 71.5509 21.9593 71.8842 20.9084C72.9307 20.5736 73.8936 20.164 74.7499 19.6913C75.8097 19.1061 76.7252 18.4115 77.428 17.629C76.1966 21.8842 72.8561 25.2384 68.6176 26.4741ZM70.7058 21.2447C70.4374 21.9873 70.1292 22.6752 69.7882 23.2978C68.6125 25.4442 67.0977 26.7276 65.5068 26.9524V21.9227C67.3501 21.8859 69.1065 21.6481 70.7058 21.2447ZM72.2188 19.7252C72.9586 19.4559 73.644 19.147 74.2639 18.8045C76.4023 17.624 77.6804 16.1032 77.9042 14.506H72.8945C72.8575 16.3566 72.6205 18.12 72.2188 19.7252ZM71.8863 14.506C71.8444 16.5256 71.5551 18.4216 71.0754 20.0969C69.407 20.5779 67.5184 20.8687 65.5068 20.9105V18.726C66.257 16.7966 67.788 15.2594 69.7097 14.506H71.8863ZM72.8945 13.494H77.9042C77.6804 11.8968 76.4023 10.376 74.2639 9.19548C73.644 8.85304 72.9586 8.54406 72.2188 8.27477C72.6205 9.88001 72.8575 11.6434 72.8945 13.494ZM71.0754 7.90314C71.5551 9.57838 71.8444 11.4744 71.8863 13.494H69.7098C67.788 12.7406 66.257 11.2034 65.5068 9.27395V7.08953C67.5184 7.13132 69.407 7.4221 71.0754 7.90314ZM71.8842 7.09156C72.9307 7.42637 73.8936 7.83601 74.7499 8.30872C75.8097 8.89392 76.7252 9.58846 77.428 10.371C76.1966 6.11575 72.8561 2.76166 68.6176 1.52584C69.397 2.23156 70.0888 3.15041 70.6716 4.21445C71.1423 5.07388 71.5509 6.04071 71.8842 7.09156ZM65.5068 1.04761C67.0977 1.27238 68.6125 2.55576 69.7882 4.70218C70.1292 5.32479 70.4374 6.01262 70.7058 6.75531C69.1065 6.35192 67.3501 6.11409 65.5068 6.07731V1.04761Z" fill="white"/>
</g>
<defs>
<clipPath id="clip0_232_1959">
<rect width="152" height="28" fill="white"/>
</clipPath>
</defs>
</svg>
