<svg width="119" height="28" viewBox="0 0 119 28" fill="none" xmlns="http://www.w3.org/2000/svg">
<g clip-path="url(#clip0_232_1971)">
<path fill-rule="evenodd" clip-rule="evenodd" d="M7.05184 1.75V28H0V1.75H7.05184Z" fill="white"/>
<path fill-rule="evenodd" clip-rule="evenodd" d="M10.5779 1.75H25.5631C30.4314 1.75 34.3779 5.66751 34.3779 10.5C34.3779 15.3325 30.4314 19.25 25.5631 19.25H17.6297V28H10.5779V1.75ZM17.6297 12.25H25.5631C26.5368 12.25 27.326 11.4665 27.326 10.5C27.326 9.53351 26.5368 8.75 25.5631 8.75H17.6297V12.25Z" fill="white"/>
<path fill-rule="evenodd" clip-rule="evenodd" d="M60.8223 1.75V15.3125C60.8223 18.4536 63.3875 21 66.552 21C69.7164 21 72.2817 18.4536 72.2817 15.3125V1.75H79.3337V15.3125C79.3337 22.3196 73.6111 28 66.552 28C59.4929 28 53.7705 22.3196 53.7705 15.3125V1.75H60.8223Z" fill="white"/>
<path fill-rule="evenodd" clip-rule="evenodd" d="M37.0223 14C37.0223 7.2345 42.5474 1.75 49.363 1.75H51.126V8.75H49.363C46.442 8.75 44.0741 11.1005 44.0741 14V14.875C44.0741 22.1237 38.1543 28 30.8519 28H29.9705V21H30.8519C34.2597 21 37.0223 18.2577 37.0223 14.875V14Z" fill="white"/>
<path d="M119 2.625C119 4.07475 117.816 5.25 116.355 5.25C114.895 5.25 113.711 4.07475 113.711 2.625C113.711 1.17525 114.895 0 116.355 0C117.816 0 119 1.17525 119 2.625Z" fill="white"/>
<path d="M86.9051 28L90.2702 14.0127L92.772 22.4275C94.2634 27.4464 101.425 27.4464 102.917 22.4275L105.418 14.0127L108.784 28H116.033L110.742 6.00564C109.484 0.7752 102.059 0.581539 100.525 5.73923L97.8447 14.7583L95.1633 5.73924C93.6304 0.581569 86.2045 0.775172 84.9462 6.00563L79.6553 28H86.9051Z" fill="white"/>
</g>
<defs>
<clipPath id="clip0_232_1971">
<rect width="119" height="28" fill="white"/>
</clipPath>
</defs>
</svg>
