<svg width="27" height="25" viewBox="0 0 27 25" fill="none" xmlns="http://www.w3.org/2000/svg">
<path d="M19.3333 0C17.0133 0 14.7867 1.08 13.3333 2.78667C11.88 1.08 9.65333 0 7.33333 0C3.22667 0 0 3.22667 0 7.33333C0 12.3733 4.53333 16.48 11.4 22.72L13.3333 24.4667L15.2667 22.7067C22.1333 16.48 26.6667 12.3733 26.6667 7.33333C26.6667 3.22667 23.44 0 19.3333 0ZM13.4667 20.7333L13.3333 20.8667L13.2 20.7333C6.85333 14.9867 2.66667 11.1867 2.66667 7.33333C2.66667 4.66667 4.66667 2.66667 7.33333 2.66667C9.38667 2.66667 11.3867 3.98667 12.0933 5.81333H14.5867C15.28 3.98667 17.28 2.66667 19.3333 2.66667C22 2.66667 24 4.66667 24 7.33333C24 11.1867 19.8133 14.9867 13.4667 20.7333Z" fill="#46208F"/>
</svg>
