<svg width="30" height="27" viewBox="0 0 30 27" fill="none" xmlns="http://www.w3.org/2000/svg">
<path d="M14.9653 23.8C14.7253 24.04 14.2987 24.08 14.0187 23.8C13.7787 23.56 13.7387 23.1333 14.0187 22.8533L18.5387 18.3333L16.6587 16.4533L12.1387 20.9733C11.8853 21.24 11.4587 21.2267 11.192 20.9733C10.912 20.6933 10.952 20.2667 11.192 20.0267L15.712 15.5067L13.832 13.6267L9.312 18.1467C9.072 18.3867 8.64533 18.4267 8.36533 18.1467C8.112 17.8933 8.112 17.4667 8.36533 17.2L12.8853 12.68L10.992 10.8L6.472 15.32C6.232 15.56 5.80533 15.6 5.52533 15.32C5.272 15.0533 5.272 14.64 5.52533 14.3733L11.3653 8.53333L13.8587 11.0133C15.1253 12.28 17.312 12.2667 18.5787 11.0133C19.8853 9.70667 19.8853 7.6 18.5787 6.29333L16.0987 3.81333L16.472 3.44C17.512 2.4 19.2053 2.4 20.2453 3.44L25.8987 9.09333C26.9387 10.1333 26.9387 11.8267 25.8987 12.8667L14.9653 23.8ZM27.7787 14.76C29.8587 12.68 29.8587 9.30667 27.7787 7.21333L22.1253 1.56C20.0453 -0.52 16.672 -0.52 14.5787 1.56L14.2053 1.93333L13.832 1.56C11.752 -0.52 8.37866 -0.52 6.28533 1.56L1.56533 6.28C-0.328002 8.17333 -0.501336 11.12 1.032 13.2L2.96533 11.2667C2.44533 10.2667 2.61866 9 3.45866 8.16L8.17866 3.44C9.21866 2.4 10.912 2.4 11.952 3.44L16.6987 8.18667C16.9387 8.42667 16.9787 8.85333 16.6987 9.13333C16.4187 9.41333 15.992 9.37333 15.752 9.13333L11.3653 4.76L3.632 12.48C2.32533 13.7733 2.32533 15.8933 3.632 17.2C4.152 17.72 4.81866 18.04 5.52533 18.1333C5.61866 18.8267 5.92533 19.4933 6.45866 20.0267C6.992 20.56 7.65866 20.8667 8.352 20.96C8.44533 21.6533 8.752 22.32 9.28533 22.8533C9.81866 23.3867 10.4853 23.6933 11.1787 23.7867C11.272 24.5067 11.592 25.16 12.112 25.68C12.7387 26.3067 13.5787 26.6533 14.472 26.6533C15.3653 26.6533 16.2053 26.3067 16.832 25.68L27.7787 14.76Z" fill="#46208F"/>
</svg>
