<svg width="19" height="26" viewBox="0 0 19 26" fill="none" xmlns="http://www.w3.org/2000/svg">
<path d="M9.33766 0C8.72433 0 8.09766 0.0533335 7.47099 0.186667C3.79099 0.893333 0.85766 3.86667 0.164327 7.54667C-0.475673 11.0267 0.804327 14.2267 3.12433 16.2933C3.69766 16.8 4.00433 17.5067 4.00433 18.2533V21.3333C4.00433 22.8 5.20433 24 6.67099 24H7.04433C7.51099 24.8 8.35099 25.3333 9.33766 25.3333C10.3243 25.3333 11.1777 24.8 11.631 24H12.0043C13.471 24 14.671 22.8 14.671 21.3333V18.2533C14.671 17.52 14.9643 16.8 15.5243 16.3067C17.4577 14.6 18.671 12.1067 18.671 9.33333C18.671 4.17333 14.4977 0 9.33766 0ZM12.0043 18.6667H6.67099V17.3333H12.0043V18.6667ZM6.67099 21.3333V20H12.0043V21.3333H6.67099ZM13.751 14.32C13.631 14.4267 13.5377 14.56 13.431 14.6667H5.23099C5.12433 14.5467 5.03099 14.4133 4.91099 14.3067C3.15099 12.7333 2.36433 10.3867 2.79099 8.04C3.27099 5.45333 5.40433 3.30667 7.97766 2.8C8.43099 2.70667 8.88433 2.66667 9.33766 2.66667C13.0177 2.66667 16.0043 5.65333 16.0043 9.33333C16.0043 11.24 15.191 13.0533 13.751 14.32Z" fill="#46208F"/>
<path d="M10.0043 10.6667H8.67099V14.6667H10.0043V10.6667Z" fill="#46208F"/>
<path d="M7.17699 7.83163L6.23419 8.77443L9.06259 11.6028L10.0054 10.66L7.17699 7.83163Z" fill="#46208F"/>
<path d="M8.67233 10.6736L9.61513 11.6164L12.4435 8.78797L11.5007 7.84517L8.67233 10.6736Z" fill="#46208F"/>
</svg>
